<svg xmlns="http://www.w3.org/2000/svg" viewBox="0 0 1280 640" width="1280" height="640">
  <defs>
    <linearGradient id="bg" x1="0%" y1="0%" x2="100%" y2="100%">
      <stop offset="0%" style="stop-color:#0a0f1e"/>
      <stop offset="100%" style="stop-color:#0d1f3c"/>
    </linearGradient>
    <linearGradient id="acc" x1="0%" y1="0%" x2="100%" y2="0%">
      <stop offset="0%" style="stop-color:#00ff88"/>
      <stop offset="100%" style="stop-color:#00d4ff"/>
    </linearGradient>
    <filter id="glow">
      <feGaussianBlur stdDeviation="8" result="blur"/>
      <feMerge><feMergeNode in="blur"/><feMergeNode in="SourceGraphic"/></feMerge>
    </filter>
  </defs>
  <rect width="1280" height="640" fill="url(#bg)"/>
  <g opacity="0.05" stroke="#00ff88" stroke-width="1">
    <line x1="0" y1="160" x2="1280" y2="160"/><line x1="0" y1="320" x2="1280" y2="320"/>
    <line x1="0" y1="480" x2="1280" y2="480"/><line x1="320" y1="0" x2="320" y2="640"/>
    <line x1="640" y1="0" x2="640" y2="640"/><line x1="960" y1="0" x2="960" y2="640"/>
  </g>
  <g opacity="0.22">
    <rect x="780" y="100" width="380" height="70" rx="10" fill="none" stroke="#00ff88" stroke-width="1.5"/>
    <text x="800" y="128" font-family="Arial,sans-serif" font-size="12" fill="#86efac">&#x26BD; Premier League</text>
    <text x="800" y="154" font-family="Arial Black,sans-serif" font-size="18" fill="white">Arsenal  2 — 1  Chelsea</text>
    <rect x="780" y="185" width="380" height="70" rx="10" fill="none" stroke="#00d4ff" stroke-width="1.5"/>
    <text x="800" y="213" font-family="Arial,sans-serif" font-size="12" fill="#7dd3fc">&#x1F3C0; NBA  &#x1F534; LIVE</text>
    <text x="800" y="239" font-family="Arial Black,sans-serif" font-size="18" fill="white">Lakers  98 — 102  Celtics</text>
    <rect x="780" y="270" width="380" height="70" rx="10" fill="none" stroke="#a78bfa" stroke-width="1.5"/>
    <text x="800" y="298" font-family="Arial,sans-serif" font-size="12" fill="#c4b5fd">&#x1F3BE; ATP Wimbledon</text>
    <text x="800" y="324" font-family="Arial Black,sans-serif" font-size="18" fill="white">Djokovic  6-4  Alcaraz</text>
    <rect x="780" y="355" width="380" height="70" rx="10" fill="none" stroke="#fb923c" stroke-width="1.5"/>
    <text x="800" y="383" font-family="Arial,sans-serif" font-size="12" fill="#fdba74">&#x1F3C8; NFL  FT</text>
    <text x="800" y="409" font-family="Arial Black,sans-serif" font-size="18" fill="white">Chiefs  24 — 17  Cowboys</text>
  </g>
  <circle cx="112" cy="280" r="18" fill="#00ff88" opacity="0.15" filter="url(#glow)"/>
  <circle cx="112" cy="280" r="10" fill="#00ff88" opacity="0.6"/>
  <circle cx="112" cy="280" r="5" fill="#00ff88"/>
  <text x="155" y="248" font-family="Arial Black,sans-serif" font-size="62" fill="white" font-weight="900">Event</text>
  <text x="155" y="318" font-family="Arial Black,sans-serif" font-size="62" fill="url(#acc)" font-weight="900">Pulse</text>
  <rect x="155" y="332" width="340" height="4" rx="2" fill="url(#acc)"/>
  <text x="155" y="375" font-family="Arial,sans-serif" font-size="20" fill="#86efac">Live Multi-Sport Dashboard for OBS &amp; Streamers</text>
  <g font-family="Arial,sans-serif" font-size="12" font-weight="600">
    <rect x="155" y="400" width="66" height="28" rx="14" fill="#00ff88" opacity="0.15"/>
    <text x="188" y="419" fill="#00ff88" text-anchor="middle">Soccer</text>
    <rect x="231" y="400" width="54" height="28" rx="14" fill="#00d4ff" opacity="0.15"/>
    <text x="258" y="419" fill="#00d4ff" text-anchor="middle">NBA</text>
    <rect x="295" y="400" width="50" height="28" rx="14" fill="#fb923c" opacity="0.15"/>
    <text x="320" y="419" fill="#fb923c" text-anchor="middle">NFL</text>
    <rect x="355" y="400" width="62" height="28" rx="14" fill="#a78bfa" opacity="0.15"/>
    <text x="386" y="419" fill="#a78bfa" text-anchor="middle">Tennis</text>
    <rect x="427" y="400" width="68" height="28" rx="14" fill="#f472b6" opacity="0.15"/>
    <text x="461" y="419" fill="#f472b6" text-anchor="middle">+ 4 More</text>
  </g>
  <text x="155" y="475" font-family="Arial,sans-serif" font-size="14" fill="#6b7280">ESPN API · Zero Config · OBS Ready · 8 Sports</text>
  <rect x="0" y="610" width="1280" height="30" fill="#00ff88" opacity="0.06"/>
  <text x="640" y="630" font-family="Arial,sans-serif" font-size="13" fill="#6b7280" text-anchor="middle" opacity="0.7">github.com/SamoTech/EventPulseChat</text>
</svg>